<svg width="188" height="62" viewBox="0 0 188 62" fill="none" xmlns="http://www.w3.org/2000/svg">
<path fill-rule="evenodd" clip-rule="evenodd" d="M13.6292 14.8535C13.1604 14.8535 12.7804 15.2335 12.7804 15.7023V23.3008L7.36134 17.8817C7.02988 17.5503 6.49248 17.5503 6.16102 17.8817L3.0295 21.0132C2.69804 21.3447 2.69804 21.8821 3.0295 22.2136L8.44987 27.6339H0.848758C0.380002 27.6339 0 28.0139 0 28.4827V32.9113C0 33.3801 0.380003 33.7601 0.848759 33.7601H8.34423L3.01554 39.0888C2.68408 39.4202 2.68408 39.9576 3.01554 40.2891L6.14705 43.4206C6.47851 43.7521 7.01592 43.7521 7.34738 43.4206L12.7804 37.9876V45.6917C12.7804 46.1605 13.1604 46.5405 13.6292 46.5405H18.0578C18.5266 46.5405 18.9066 46.1605 18.9066 45.6917V38.0906L24.2353 43.4193C24.5667 43.7508 25.1041 43.7508 25.4356 43.4193L28.5671 40.2878C28.8986 39.9563 28.8986 39.4189 28.5671 39.0875L23.2397 33.7601H30.8382C31.307 33.7601 31.687 33.3801 31.687 32.9113V28.4827C31.687 28.0139 31.307 27.6339 30.8382 27.6339H23.1341L28.5531 22.2149C28.8846 21.8834 28.8846 21.346 28.5531 21.0145L25.4216 17.883C25.0902 17.5516 24.5528 17.5516 24.2213 17.883L18.9066 23.1977V15.7023C18.9066 15.2335 18.5266 14.8535 18.0578 14.8535H13.6292ZM16.6071 34.8411C17.4163 34.6796 18.1595 34.2818 18.7426 33.6979L17.4401 32.3971C17.1143 32.7233 16.699 32.9456 16.2469 33.0358C15.7947 33.1261 15.3259 33.0802 14.8998 32.904C14.4737 32.7278 14.1094 32.4292 13.853 32.046C13.5966 31.6628 13.4596 31.2121 13.4593 30.7511C13.4591 30.29 13.5955 29.8392 13.8514 29.4556C14.1074 29.0721 14.4713 28.773 14.8972 28.5963C15.3231 28.4196 15.7918 28.3732 16.2441 28.4628C16.6963 28.5525 17.1119 28.7743 17.4381 29.1001L18.739 27.7977C18.1551 27.2146 17.4115 26.8177 16.6021 26.6572C15.7927 26.4967 14.9538 26.5798 14.1917 26.8961C13.4295 27.2123 12.7782 27.7475 12.3202 28.4339C11.8622 29.1202 11.618 29.927 11.6185 30.7522C11.619 31.5774 11.8642 32.3838 12.3231 33.0697C12.7819 33.7555 13.4339 34.2898 14.1964 34.6051C14.959 34.9205 15.7979 35.0026 16.6071 34.8411Z" fill="#002BF3"/>
<path d="M39.9658 31.3052C39.9658 29.1569 40.3955 27.2866 41.2548 25.6943C42.1141 24.0768 43.302 22.8257 44.8185 21.9411C46.3602 21.0565 48.1167 20.6142 50.0881 20.6142C52.6408 20.6142 54.7386 21.2334 56.3814 22.4719C58.0495 23.7103 59.1489 25.4289 59.6797 27.6278H55.9644C55.6105 26.3641 54.9155 25.3658 53.8792 24.6328C52.8683 23.8999 51.6046 23.5334 50.0881 23.5334C48.1167 23.5334 46.5245 24.2158 45.3113 25.5806C44.0981 26.9201 43.4916 28.8283 43.4916 31.3052C43.4916 33.8073 44.0981 35.7408 45.3113 37.1056C46.5245 38.4704 48.1167 39.1528 50.0881 39.1528C51.6046 39.1528 52.8683 38.799 53.8792 38.0913C54.8902 37.3836 55.5852 36.3727 55.9644 35.0584H59.6797C59.1236 37.1814 58.0116 38.8874 56.3435 40.1764C54.6754 41.4401 52.5903 42.072 50.0881 42.072C48.1167 42.072 46.3602 41.6297 44.8185 40.7451C43.302 39.8605 42.1141 38.6094 41.2548 36.9919C40.3955 35.3743 39.9658 33.4788 39.9658 31.3052Z" fill="white"/>
<path d="M77.1366 31.2673C77.1366 29.1442 77.5662 27.2866 78.4256 25.6943C79.2849 24.0768 80.4601 22.8257 81.9513 21.9411C83.4678 21.0565 85.1485 20.6142 86.9935 20.6142C88.8132 20.6142 90.3929 21.006 91.7324 21.7895C93.0719 22.573 94.0703 23.5587 94.7274 24.7465V20.9554H98.2152V41.7308H94.7274V37.8638C94.045 39.077 93.0214 40.088 91.6566 40.8967C90.317 41.6802 88.75 42.072 86.9556 42.072C85.1106 42.072 83.4425 41.617 81.9513 40.7072C80.4601 39.7973 79.2849 38.521 78.4256 36.8781C77.5662 35.2353 77.1366 33.365 77.1366 31.2673ZM94.7274 31.3052C94.7274 29.7382 94.4115 28.3734 93.7796 27.2108C93.1478 26.0482 92.2884 25.1636 91.2016 24.557C90.1401 23.9251 88.9649 23.6092 87.6759 23.6092C86.3869 23.6092 85.2117 23.9125 84.1502 24.5191C83.0886 25.1257 82.242 26.0103 81.6101 27.1729C80.9782 28.3355 80.6623 29.7003 80.6623 31.2673C80.6623 32.8595 80.9782 34.2496 81.6101 35.4375C82.242 36.6001 83.0886 37.4974 84.1502 38.1292C85.2117 38.7358 86.3869 39.0391 87.6759 39.0391C88.9649 39.0391 90.1401 38.7358 91.2016 38.1292C92.2884 37.4974 93.1478 36.6001 93.7796 35.4375C94.4115 34.2496 94.7274 32.8722 94.7274 31.3052Z" fill="white"/>
<path d="M114.795 23.7988H108.14V41.7308H104.69V23.7988H101.998V20.9554H104.69V19.4769C104.69 17.1517 105.284 15.4583 106.472 14.3968C107.685 13.31 109.618 12.7666 112.272 12.7666V15.6479C110.756 15.6479 109.681 15.9511 109.05 16.5577C108.443 17.139 108.14 18.1121 108.14 19.4769V20.9554H114.795V23.7988Z" fill="white"/>
<path d="M120.73 23.7988V36.0441C120.73 37.0551 120.945 37.7754 121.375 38.205C121.804 38.6094 122.55 38.8116 123.611 38.8116H126.151V41.7308H123.043C121.122 41.7308 119.681 41.2885 118.721 40.4039C117.76 39.5193 117.28 38.066 117.28 36.0441V23.7988H114.588V20.9554H117.28V15.7237H120.73V20.9554H126.151V23.7988H120.73Z" fill="white"/>
<path d="M133.781 13.6765V41.7308H130.331V13.6765H133.781Z" fill="white"/>
<path d="M138.372 31.2673C138.372 29.1442 138.802 27.2866 139.661 25.6943C140.52 24.0768 141.696 22.8257 143.187 21.9411C144.703 21.0565 146.384 20.6142 148.229 20.6142C150.049 20.6142 151.628 21.006 152.968 21.7895C154.307 22.573 155.306 23.5587 155.963 24.7465V20.9554H159.451V41.7308H155.963V37.8638C155.28 39.077 154.257 40.088 152.892 40.8967C151.553 41.6802 149.986 42.072 148.191 42.072C146.346 42.072 144.678 41.617 143.187 40.7072C141.696 39.7973 140.52 38.521 139.661 36.8781C138.802 35.2353 138.372 33.365 138.372 31.2673ZM155.963 31.3052C155.963 29.7382 155.647 28.3734 155.015 27.2108C154.383 26.0482 153.524 25.1636 152.437 24.557C151.376 23.9251 150.2 23.6092 148.911 23.6092C147.622 23.6092 146.447 23.9125 145.386 24.5191C144.324 25.1257 143.477 26.0103 142.846 27.1729C142.214 28.3355 141.898 29.7003 141.898 31.2673C141.898 32.8595 142.214 34.2496 142.846 35.4375C143.477 36.6001 144.324 37.4974 145.386 38.1292C146.447 38.7358 147.622 39.0391 148.911 39.0391C150.2 39.0391 151.376 38.7358 152.437 38.1292C153.524 37.4974 154.383 36.6001 155.015 35.4375C155.647 34.2496 155.963 32.8722 155.963 31.3052Z" fill="white"/>
<path d="M168.731 24.8224C169.438 23.5839 170.475 22.573 171.839 21.7895C173.204 21.006 174.759 20.6142 176.502 20.6142C178.373 20.6142 180.053 21.0565 181.545 21.9411C183.036 22.8257 184.211 24.0768 185.07 25.6943C185.93 27.2866 186.359 29.1442 186.359 31.2673C186.359 33.365 185.93 35.2353 185.07 36.8781C184.211 38.521 183.023 39.7973 181.507 40.7072C180.016 41.617 178.347 42.072 176.502 42.072C174.708 42.072 173.128 41.6802 171.764 40.8967C170.424 40.1132 169.413 39.1149 168.731 37.9017V41.7308H165.281V13.6765H168.731V24.8224ZM182.834 31.2673C182.834 29.7003 182.518 28.3355 181.886 27.1729C181.254 26.0103 180.395 25.1257 179.308 24.5191C178.246 23.9125 177.071 23.6092 175.782 23.6092C174.518 23.6092 173.343 23.9251 172.256 24.557C171.195 25.1636 170.336 26.0608 169.678 27.2487C169.047 28.4113 168.731 29.7635 168.731 31.3052C168.731 32.8722 169.047 34.2496 169.678 35.4375C170.336 36.6001 171.195 37.4974 172.256 38.1292C173.343 38.7358 174.518 39.0391 175.782 39.0391C177.071 39.0391 178.246 38.7358 179.308 38.1292C180.395 37.4974 181.254 36.6001 181.886 35.4375C182.518 34.2496 182.834 32.8595 182.834 31.2673Z" fill="white"/>
<path d="M65.9202 41.7307L65.9202 22.4922L74.9736 22.4922" stroke="white" stroke-width="3.3243"/>
</svg>
