<svg width="110" height="46" viewBox="0 0 110 46" fill="none" xmlns="http://www.w3.org/2000/svg">
<g id="Frame 10">
<g id="Group 17">
<g id="craftlab">
<path d="M2.12402 23.4433C2.12402 21.8778 2.43713 20.5148 3.06333 19.3545C3.68954 18.1758 4.55518 17.2641 5.66025 16.6195C6.78374 15.9748 8.06378 15.6525 9.50038 15.6525C11.3606 15.6525 12.8893 16.1038 14.0864 17.0062C15.302 17.9087 16.1032 19.1611 16.49 20.7635H13.7825C13.5247 19.8426 13.0182 19.1151 12.2631 18.581C11.5263 18.0468 10.6054 17.7798 9.50038 17.7798C8.06378 17.7798 6.90346 18.2771 6.0194 19.2716C5.13534 20.2478 4.69331 21.6383 4.69331 23.4433C4.69331 25.2666 5.13534 26.6756 6.0194 27.6702C6.90346 28.6647 8.06378 29.162 9.50038 29.162C10.6054 29.162 11.5263 28.9042 12.2631 28.3885C12.9998 27.8728 13.5063 27.1361 13.7825 26.1783H16.49C16.0848 27.7254 15.2744 28.9686 14.0588 29.9079C12.8432 30.8288 11.3237 31.2893 9.50038 31.2893C8.06378 31.2893 6.78374 30.967 5.66025 30.3223C4.55518 29.6777 3.68954 28.766 3.06333 27.5873C2.43713 26.4086 2.12402 25.0272 2.12402 23.4433Z" fill="white"/>
<path d="M29.2112 23.4156C29.2112 21.8685 29.5243 20.5148 30.1505 19.3545C30.7767 18.1758 31.6332 17.2641 32.7198 16.6195C33.8249 15.9748 35.0497 15.6525 36.3942 15.6525C37.7203 15.6525 38.8714 15.938 39.8475 16.509C40.8237 17.0799 41.5512 17.7982 42.0301 18.6638V15.9012H44.5717V31.0406H42.0301V28.2227C41.5328 29.1068 40.7868 29.8435 39.7923 30.4329C38.8161 31.0038 37.6742 31.2893 36.3666 31.2893C35.0221 31.2893 33.8065 30.9578 32.7198 30.2947C31.6332 29.6317 30.7767 28.7016 30.1505 27.5044C29.5243 26.3073 29.2112 24.9443 29.2112 23.4156ZM42.0301 23.4433C42.0301 22.3014 41.7998 21.3068 41.3394 20.4596C40.8789 19.6124 40.2527 18.9677 39.4608 18.5257C38.6872 18.0653 37.8308 17.835 36.8915 17.835C35.9522 17.835 35.0957 18.0561 34.3222 18.4981C33.5486 18.9401 32.9316 19.5847 32.4712 20.432C32.0107 21.2792 31.7805 22.2737 31.7805 23.4156C31.7805 24.576 32.0107 25.589 32.4712 26.4546C32.9316 27.3018 33.5486 27.9557 34.3222 28.4161C35.0957 28.8581 35.9522 29.0791 36.8915 29.0791C37.8308 29.0791 38.6872 28.8581 39.4608 28.4161C40.2527 27.9557 40.8789 27.3018 41.3394 26.4546C41.7998 25.589 42.0301 24.5852 42.0301 23.4433Z" fill="white"/>
<path d="M56.6535 17.9732H51.8039V31.0406H49.2899V17.9732H47.3284V15.9012H49.2899V14.8237C49.2899 13.1293 49.7227 11.8953 50.5883 11.1217C51.4724 10.3298 52.8813 9.93378 54.8152 9.93378V12.0334C53.7101 12.0334 52.9274 12.2544 52.4669 12.6965C52.0249 13.1201 51.8039 13.8292 51.8039 14.8237V15.9012H56.6535V17.9732Z" fill="white"/>
<path d="M60.9788 17.9732V26.8966C60.9788 27.6333 61.1353 28.1582 61.4484 28.4714C61.7616 28.766 62.3049 28.9134 63.0784 28.9134H64.9294V31.0406H62.664C61.2643 31.0406 60.2145 30.7183 59.5146 30.0737C58.8147 29.4291 58.4648 28.3701 58.4648 26.8966V17.9732H56.5033V15.9012H58.4648V12.0887H60.9788V15.9012H64.9294V17.9732H60.9788Z" fill="white"/>
<path d="M70.4895 10.5968V31.0406H67.9755V10.5968H70.4895Z" fill="white"/>
<path d="M73.835 23.4156C73.835 21.8685 74.1481 20.5148 74.7743 19.3545C75.4005 18.1758 76.2569 17.2641 77.3436 16.6195C78.4486 15.9748 79.6734 15.6525 81.0179 15.6525C82.344 15.6525 83.4951 15.938 84.4713 16.509C85.4474 17.0799 86.1749 17.7982 86.6538 18.6638V15.9012H89.1955V31.0406H86.6538V28.2227C86.1565 29.1068 85.4106 29.8435 84.416 30.4329C83.4399 31.0038 82.298 31.2893 80.9903 31.2893C79.6458 31.2893 78.4302 30.9578 77.3436 30.2947C76.2569 29.6317 75.4005 28.7016 74.7743 27.5044C74.1481 26.3073 73.835 24.9443 73.835 23.4156ZM86.6538 23.4433C86.6538 22.3014 86.4236 21.3068 85.9631 20.4596C85.5027 19.6124 84.8765 18.9677 84.0845 18.5257C83.3109 18.0653 82.4545 17.835 81.5152 17.835C80.5759 17.835 79.7195 18.0561 78.9459 18.4981C78.1724 18.9401 77.5554 19.5847 77.0949 20.432C76.6345 21.2792 76.4043 22.2737 76.4043 23.4156C76.4043 24.576 76.6345 25.589 77.0949 26.4546C77.5554 27.3018 78.1724 27.9557 78.9459 28.4161C79.7195 28.8581 80.5759 29.0791 81.5152 29.0791C82.4545 29.0791 83.3109 28.8581 84.0845 28.4161C84.8765 27.9557 85.5027 27.3018 85.9631 26.4546C86.4236 25.589 86.6538 24.5852 86.6538 23.4433Z" fill="white"/>
<path d="M95.958 18.7191C96.4737 17.8166 97.2288 17.0799 98.2234 16.509C99.2179 15.938 100.351 15.6525 101.621 15.6525C102.984 15.6525 104.209 15.9748 105.296 16.6195C106.382 17.2641 107.239 18.1758 107.865 19.3545C108.491 20.5148 108.804 21.8685 108.804 23.4156C108.804 24.9443 108.491 26.3073 107.865 27.5044C107.239 28.7016 106.373 29.6317 105.268 30.2947C104.182 30.9578 102.966 31.2893 101.621 31.2893C100.314 31.2893 99.1627 31.0038 98.1681 30.4329C97.192 29.8619 96.4553 29.1344 95.958 28.2503V31.0406H93.4439V10.5968H95.958V18.7191ZM106.235 23.4156C106.235 22.2737 106.005 21.2792 105.544 20.432C105.084 19.5847 104.458 18.9401 103.666 18.4981C102.892 18.0561 102.036 17.835 101.097 17.835C100.176 17.835 99.3192 18.0653 98.5273 18.5257C97.7537 18.9677 97.1275 19.6216 96.6486 20.4872C96.1882 21.3344 95.958 22.3198 95.958 23.4433C95.958 24.5852 96.1882 25.589 96.6486 26.4546C97.1275 27.3018 97.7537 27.9557 98.5273 28.4161C99.3192 28.8581 100.176 29.0791 101.097 29.0791C102.036 29.0791 102.892 28.8581 103.666 28.4161C104.458 27.9557 105.084 27.3018 105.544 26.4546C106.005 25.589 106.235 24.576 106.235 23.4156Z" fill="white"/>
</g>
<path id="Line 1" d="M21.0376 31.0406L21.0376 17.0211L27.635 17.0211" stroke="white" stroke-width="2.4225"/>
</g>
</g>
</svg>
