<svg width="24" height="24" viewBox="0 0 24 24" fill="none" xmlns="http://www.w3.org/2000/svg">
<path fill-rule="evenodd" clip-rule="evenodd" d="M9.9319 0.454468C9.59031 0.454468 9.31339 0.731385 9.31339 1.07298V6.6102L5.36438 2.66119C5.12284 2.41965 4.73122 2.41965 4.48968 2.66119L2.20767 4.9432C1.96612 5.18474 1.96612 5.57636 2.20767 5.81791L6.15762 9.76785H0.61851C0.276916 9.76785 0 10.0448 0 10.3864V13.6136C0 13.9552 0.276917 14.2321 0.618511 14.2321H6.08063L2.19749 18.1153C1.95595 18.3568 1.95595 18.7484 2.19749 18.99L4.4795 21.272C4.72104 21.5135 5.11266 21.5135 5.35421 21.272L9.31339 17.3128V22.927C9.31339 23.2686 9.59031 23.5455 9.9319 23.5455H13.1591C13.5007 23.5455 13.7777 23.2686 13.7777 22.927V17.3879L17.6608 21.271C17.9023 21.5126 18.294 21.5126 18.5355 21.271L20.8175 18.989C21.0591 18.7475 21.0591 18.3559 20.8175 18.1143L16.9353 14.2321H22.4725C22.8141 14.2321 23.091 13.9552 23.091 13.6136V10.3864C23.091 10.0448 22.8141 9.76785 22.4725 9.76785H16.8583L20.8073 5.81885C21.0489 5.57731 21.0489 5.18569 20.8073 4.94414L18.5253 2.66213C18.2838 2.42059 17.8922 2.42059 17.6506 2.66213L13.7777 6.5351V1.07298C13.7777 0.731384 13.5007 0.454468 13.1591 0.454468H9.9319ZM12.102 15.02C12.6917 14.9024 13.2333 14.6125 13.6582 14.187L12.7091 13.2391C12.4716 13.4768 12.169 13.6388 11.8395 13.7045C11.51 13.7703 11.1684 13.7369 10.8579 13.6085C10.5474 13.4801 10.2819 13.2625 10.0951 12.9832C9.90822 12.704 9.80838 12.3756 9.80817 12.0396C9.80796 11.7035 9.9074 11.375 10.0939 11.0955C10.2804 10.816 10.5456 10.5981 10.8559 10.4694C11.1663 10.3406 11.5079 10.3067 11.8375 10.3721C12.167 10.4374 12.4698 10.599 12.7076 10.8365L13.6556 9.88735C13.2301 9.46242 12.6882 9.17319 12.0983 9.05624C11.5085 8.93929 10.8972 8.99988 10.3418 9.23033C9.78643 9.46079 9.31184 9.85077 8.97807 10.351C8.6443 10.8511 8.46635 11.4391 8.46672 12.0404C8.46709 12.6417 8.64577 13.2294 8.98015 13.7292C9.31453 14.2289 9.7896 14.6183 10.3453 14.8481C10.901 15.0779 11.5123 15.1377 12.102 15.02Z" fill="#002BF3"/>
</svg>
