<svg width="21" height="21" viewBox="0 0 21 21" fill="none" xmlns="http://www.w3.org/2000/svg">
<path id="Subtract" fill-rule="evenodd" clip-rule="evenodd" d="M9.0325 0C8.72184 0 8.47 0.25184 8.47 0.5625V5.59829L4.8786 2.00689C4.65893 1.78722 4.30278 1.78722 4.08311 2.00689L2.00775 4.08225C1.78808 4.30192 1.78808 4.65807 2.00775 4.87774L5.6 8.47H0.5625C0.25184 8.47 0 8.72184 0 9.0325V11.9675C0 12.2782 0.25184 12.53 0.5625 12.53H5.52999L1.99849 16.0615C1.77883 16.2812 1.77883 16.6373 1.99849 16.857L4.07385 18.9323C4.29352 19.152 4.64968 19.152 4.86935 18.9323L8.47 15.3317V20.4375C8.47 20.7482 8.72184 21 9.0325 21H11.9675C12.2782 21 12.53 20.7482 12.53 20.4375V15.4L16.0615 18.9315C16.2812 19.1512 16.6373 19.1512 16.857 18.9315L18.9323 16.8561C19.152 16.6365 19.152 16.2803 18.9323 16.0606L15.4017 12.53H20.4375C20.7482 12.53 21 12.2782 21 11.9675V9.0325C21 8.72184 20.7482 8.47 20.4375 8.47H15.3317L18.9231 4.8786C19.1428 4.65893 19.1428 4.30278 18.9231 4.08311L16.8477 2.00775C16.6281 1.78808 16.2719 1.78808 16.0522 2.00775L12.53 5.52999V0.5625C12.53 0.25184 12.2782 0 11.9675 0H9.0325ZM11.0059 13.2465C11.5422 13.1395 12.0347 12.8759 12.4212 12.489L11.558 11.6268C11.342 11.843 11.0668 11.9904 10.7672 12.0502C10.4675 12.11 10.1568 12.0796 9.87443 11.9628C9.59204 11.846 9.35062 11.6481 9.18069 11.3942C9.01077 11.1402 8.91997 10.8415 8.91978 10.536C8.91959 10.2304 9.01002 9.93161 9.17964 9.67743C9.34925 9.42324 9.59043 9.22507 9.87267 9.10795C10.1549 8.99084 10.4656 8.96005 10.7653 9.01948C11.065 9.07891 11.3404 9.22589 11.5566 9.44184L12.4188 8.57865C12.0318 8.1922 11.539 7.92916 11.0026 7.8228C10.4661 7.71645 9.91023 7.77154 9.40512 7.98113C8.90001 8.19072 8.46839 8.54538 8.16485 9.00027C7.86131 9.45516 7.69947 9.98984 7.69981 10.5367C7.70015 11.0836 7.86264 11.6181 8.16674 12.0726C8.47084 12.5271 8.90289 12.8812 9.40826 13.0902C9.91363 13.2991 10.4696 13.3536 11.0059 13.2465Z" fill="white"/>
</svg>
