<svg width="335" height="42" viewBox="0 0 335 42" fill="none" xmlns="http://www.w3.org/2000/svg">
<rect x="0.5" y="0.893555" width="40" height="40" rx="20" fill="black"/>
<rect x="0.5" y="0.893555" width="40" height="40" rx="20" stroke="#F7F7F7"/>
<path d="M22.3314 20.3216L27.543 14.3936H26.3078L21.7838 19.5406L18.1688 14.3936H14L19.4658 22.1776L14 28.3936H15.2352L20.0134 22.9576L23.8312 28.3936H28L22.3314 20.3216ZM20.6402 22.2456L20.0865 21.4706L15.6799 15.3036H17.5769L21.1323 20.2806L21.6861 21.0556L26.3088 27.5256H24.4117L20.6402 22.2456Z" fill="white"/>
<rect x="49.5" y="0.893555" width="40" height="40" rx="20" fill="black"/>
<rect x="49.5" y="0.893555" width="40" height="40" rx="20" stroke="#F7F7F7"/>
<path d="M70.001 16.9436C70.918 16.0066 72.112 15.3936 73.501 15.3936C74.9597 15.3936 76.3586 15.973 77.3901 17.0045C78.4215 18.0359 79.001 19.4349 79.001 20.8936V28.3936H77.001V20.8936C77.001 19.9653 76.6322 19.0751 75.9759 18.4187C75.3195 17.7623 74.4292 17.3936 73.501 17.3936C72.5727 17.3936 71.6825 17.7623 71.0261 18.4187C70.3697 19.0751 70.001 19.9653 70.001 20.8936V28.3936H68.001V15.8936H70.001V16.9436ZM63.001 13.8936C62.6032 13.8936 62.2216 13.7355 61.9403 13.4542C61.659 13.1729 61.501 12.7914 61.501 12.3936C61.501 11.9957 61.659 11.6142 61.9403 11.3329C62.2216 11.0516 62.6032 10.8936 63.001 10.8936C63.3988 10.8936 63.7803 11.0516 64.0616 11.3329C64.3429 11.6142 64.501 11.9957 64.501 12.3936C64.501 12.7914 64.3429 13.1729 64.0616 13.4542C63.7803 13.7355 63.3988 13.8936 63.001 13.8936ZM62.001 15.8936H64.001V28.3936H62.001V15.8936Z" fill="white"/>
<rect x="98.5" y="0.893555" width="40" height="40" rx="20" fill="black"/>
<rect x="98.5" y="0.893555" width="40" height="40" rx="20" stroke="#F7F7F7"/>
<path d="M114.5 20.3936C115.03 20.3936 115.539 20.1828 115.914 19.8078C116.289 19.4327 116.5 18.924 116.5 18.3936C116.5 17.8631 116.289 17.3544 115.914 16.9793C115.539 16.6043 115.03 16.3936 114.5 16.3936H110V20.3936H114.5ZM115.5 22.3936H110V26.3936H115.5C116.03 26.3936 116.539 26.1828 116.914 25.8078C117.289 25.4327 117.5 24.924 117.5 24.3936C117.5 23.8631 117.289 23.3544 116.914 22.9793C116.539 22.6043 116.03 22.3936 115.5 22.3936ZM117.563 20.9656C118.313 21.4162 118.894 22.1002 119.217 22.9126C119.541 23.7251 119.59 24.6213 119.356 25.464C119.122 26.3067 118.618 27.0494 117.922 27.5785C117.225 28.1077 116.375 28.3939 115.5 28.3936H108V14.3936H114.5C115.262 14.3935 116.008 14.6109 116.65 15.0202C117.292 15.4295 117.804 16.0136 118.126 16.704C118.448 17.3944 118.566 18.1623 118.466 18.9174C118.366 19.6725 118.053 20.3834 117.563 20.9666V20.9656ZM122.5 15.3936H128V16.8936H122.5V15.3936ZM130 23.8936H122.5V24.1436C122.5 24.7613 122.708 25.3611 123.09 25.8464C123.472 26.3316 124.007 26.674 124.607 26.8184C125.208 26.9628 125.84 26.9007 126.401 26.6422C126.962 26.3838 127.419 25.9439 127.7 25.3936H129.834C129.529 26.5018 128.833 27.4621 127.875 28.0965C126.916 28.7309 125.76 28.9964 124.621 28.8439C123.482 28.6913 122.437 28.131 121.679 27.2668C120.921 26.4025 120.502 25.2929 120.5 24.1436V22.6436C120.5 21.3838 121 20.1756 121.891 19.2848C122.782 18.394 123.99 17.8936 125.25 17.8936C126.51 17.8936 127.718 18.394 128.609 19.2848C129.5 20.1756 130 21.3838 130 22.6436V23.8936ZM127.896 21.8936C127.732 21.318 127.385 20.8116 126.908 20.451C126.43 20.0904 125.848 19.8953 125.25 19.8953C124.652 19.8953 124.07 20.0904 123.592 20.451C123.115 20.8116 122.768 21.318 122.604 21.8936H127.896Z" fill="white"/>
<rect x="147.5" y="0.893555" width="40" height="40" rx="20" fill="black"/>
<rect x="147.5" y="0.893555" width="40" height="40" rx="20" stroke="#F7F7F7"/>
<path d="M162.8 11.3936H171.2C174.4 11.3936 177 13.9936 177 17.1936V25.5936C177 27.1318 176.389 28.6071 175.301 29.6948C174.214 30.7825 172.738 31.3936 171.2 31.3936H162.8C159.6 31.3936 157 28.7936 157 25.5936V17.1936C157 15.6553 157.611 14.18 158.699 13.0923C159.786 12.0046 161.262 11.3936 162.8 11.3936ZM162.6 13.3936C161.645 13.3936 160.73 13.7728 160.054 14.448C159.379 15.1231 159 16.0388 159 16.9936V25.7936C159 27.7836 160.61 29.3936 162.6 29.3936H171.4C172.355 29.3936 173.27 29.0143 173.946 28.3391C174.621 27.664 175 26.7483 175 25.7936V16.9936C175 15.0036 173.39 13.3936 171.4 13.3936H162.6ZM172.25 14.8936C172.582 14.8936 172.899 15.0253 173.134 15.2597C173.368 15.4941 173.5 15.812 173.5 16.1436C173.5 16.4751 173.368 16.793 173.134 17.0274C172.899 17.2619 172.582 17.3936 172.25 17.3936C171.918 17.3936 171.601 17.2619 171.366 17.0274C171.132 16.793 171 16.4751 171 16.1436C171 15.812 171.132 15.4941 171.366 15.2597C171.601 15.0253 171.918 14.8936 172.25 14.8936ZM167 16.3936C168.326 16.3936 169.598 16.9203 170.536 17.858C171.473 18.7957 172 20.0675 172 21.3936C172 22.7196 171.473 23.9914 170.536 24.9291C169.598 25.8668 168.326 26.3936 167 26.3936C165.674 26.3936 164.402 25.8668 163.464 24.9291C162.527 23.9914 162 22.7196 162 21.3936C162 20.0675 162.527 18.7957 163.464 17.858C164.402 16.9203 165.674 16.3936 167 16.3936ZM167 18.3936C166.204 18.3936 165.441 18.7096 164.879 19.2722C164.316 19.8348 164 20.5979 164 21.3936C164 22.1892 164.316 22.9523 164.879 23.5149C165.441 24.0775 166.204 24.3936 167 24.3936C167.796 24.3936 168.559 24.0775 169.121 23.5149C169.684 22.9523 170 22.1892 170 21.3936C170 20.5979 169.684 19.8348 169.121 19.2722C168.559 18.7096 167.796 18.3936 167 18.3936Z" fill="white"/>
<rect x="196.5" y="0.893555" width="40" height="40" rx="20" fill="black"/>
<rect x="196.5" y="0.893555" width="40" height="40" rx="20" stroke="#F7F7F7"/>
<path d="M218.325 11.3936C217.098 11.3936 215.922 11.8808 215.055 12.7482C214.187 13.6155 213.7 14.7919 213.7 16.0186V18.5936H211.225C211.101 18.5936 211 18.6936 211 18.8186V22.2186C211 22.3426 211.1 22.4436 211.225 22.4436H213.7V29.4186C213.7 29.5426 213.8 29.6436 213.925 29.6436H217.325C217.449 29.6436 217.55 29.5436 217.55 29.4186V22.4436H220.047C220.15 22.4436 220.24 22.3736 220.265 22.2736L221.115 18.8736C221.123 18.8404 221.124 18.8057 221.117 18.7722C221.11 18.7388 221.095 18.7073 221.074 18.6803C221.053 18.6533 221.026 18.6315 220.996 18.6164C220.965 18.6014 220.931 18.5936 220.897 18.5936H217.55V16.0186C217.55 15.9168 217.57 15.816 217.609 15.722C217.648 15.6279 217.705 15.5425 217.777 15.4705C217.849 15.3986 217.934 15.3415 218.028 15.3025C218.122 15.2636 218.223 15.2436 218.325 15.2436H220.925C221.049 15.2436 221.15 15.1436 221.15 15.0186V11.6186C221.15 11.4946 221.05 11.3936 220.925 11.3936H218.325Z" fill="white"/>
<rect x="245.5" y="0.893555" width="40" height="40" rx="20" fill="black"/>
<rect x="245.5" y="0.893555" width="40" height="40" rx="20" stroke="#F7F7F7"/>
<path d="M276.5 21.328C276.5 21.2765 276.5 21.2179 276.498 21.1499C276.495 20.9601 276.491 20.7468 276.486 20.5194C276.467 19.8655 276.434 19.214 276.383 18.5999C276.312 17.7538 276.209 17.0483 276.069 16.5187C275.92 15.9659 275.629 15.4617 275.225 15.0566C274.821 14.6515 274.317 14.3596 273.765 14.2101C273.102 14.0319 271.803 13.9218 269.975 13.8538C269.105 13.821 268.175 13.7999 267.245 13.7882C266.919 13.7835 266.616 13.7812 266.345 13.7788H265.655C265.384 13.7812 265.081 13.7835 264.755 13.7882C263.825 13.7999 262.895 13.821 262.025 13.8538C260.197 13.9241 258.896 14.0343 258.235 14.2101C257.683 14.3592 257.179 14.651 256.774 15.0562C256.37 15.4614 256.079 15.9657 255.931 16.5187C255.788 17.0483 255.688 17.7538 255.617 18.5999C255.566 19.214 255.533 19.8655 255.514 20.5194C255.507 20.7468 255.505 20.9601 255.502 21.1499C255.502 21.2179 255.5 21.2765 255.5 21.328V21.4593C255.5 21.5108 255.5 21.5694 255.502 21.6374C255.505 21.8272 255.509 22.0405 255.514 22.2679C255.533 22.9218 255.566 23.5733 255.617 24.1874C255.688 25.0335 255.791 25.739 255.931 26.2687C256.231 27.3913 257.112 28.2772 258.235 28.5772C258.896 28.7554 260.197 28.8655 262.025 28.9335C262.895 28.9663 263.825 28.9874 264.755 28.9991C265.081 29.0038 265.384 29.0062 265.655 29.0085H266.345C266.616 29.0062 266.919 29.0038 267.245 28.9991C268.175 28.9874 269.105 28.9663 269.975 28.9335C271.803 28.8632 273.104 28.753 273.765 28.5772C274.887 28.2772 275.769 27.3937 276.069 26.2687C276.212 25.739 276.312 25.0335 276.383 24.1874C276.434 23.5733 276.467 22.9218 276.486 22.2679C276.493 22.0405 276.495 21.8272 276.498 21.6374C276.498 21.5694 276.5 21.5108 276.5 21.4593V21.328ZM274.812 21.4499C274.812 21.4991 274.812 21.553 274.81 21.6163C274.808 21.7991 274.803 22.0007 274.798 22.2187C274.782 22.8421 274.749 23.4655 274.7 24.0444C274.637 24.7991 274.548 25.4179 274.438 25.8327C274.292 26.3741 273.866 26.803 273.327 26.946C272.834 27.0772 271.595 27.1827 269.909 27.246C269.056 27.2788 268.137 27.2999 267.221 27.3116C266.9 27.3163 266.602 27.3187 266.335 27.3187H265.665L264.779 27.3116C263.863 27.2999 262.946 27.2788 262.091 27.246C260.405 27.1804 259.163 27.0772 258.673 26.946C258.134 26.8007 257.708 26.3741 257.562 25.8327C257.452 25.4179 257.363 24.7991 257.3 24.0444C257.251 23.4655 257.22 22.8421 257.202 22.2187C257.195 22.0007 257.192 21.7968 257.19 21.6163C257.19 21.553 257.188 21.4968 257.188 21.4499V21.3374C257.188 21.2882 257.188 21.2343 257.19 21.171C257.192 20.9882 257.197 20.7866 257.202 20.5687C257.218 19.9452 257.251 19.3218 257.3 18.7429C257.363 17.9882 257.452 17.3694 257.562 16.9546C257.708 16.4132 258.134 15.9843 258.673 15.8413C259.166 15.7101 260.405 15.6046 262.091 15.5413C262.944 15.5085 263.863 15.4874 264.779 15.4757C265.1 15.471 265.398 15.4687 265.665 15.4687H266.335L267.221 15.4757C268.137 15.4874 269.054 15.5085 269.909 15.5413C271.595 15.6069 272.837 15.7101 273.327 15.8413C273.866 15.9866 274.292 16.4132 274.438 16.9546C274.548 17.3694 274.637 17.9882 274.7 18.7429C274.749 19.3218 274.78 19.9452 274.798 20.5687C274.805 20.7866 274.808 20.9905 274.81 21.171C274.81 21.2343 274.812 21.2905 274.812 21.3374V21.4499ZM263.914 24.5343L269.352 21.3702L263.914 18.253V24.5343Z" fill="white"/>
<rect x="294.5" y="0.893555" width="40" height="40" rx="20" fill="black"/>
<rect x="294.5" y="0.893555" width="40" height="40" rx="20" stroke="#F7F7F7"/>
<g clip-path="url(#clip0_1142_2563)">
<path d="M324 20.3936C324.002 21.7107 323.742 23.0152 323.237 24.2315C322.732 25.4478 321.99 26.552 321.056 27.4801C320.129 28.4054 319.028 29.139 317.818 29.6389C316.607 30.1388 315.31 30.3953 314 30.3936C308.477 30.3936 304 25.9166 304 20.3936C303.997 17.8294 304.981 15.3626 306.75 13.5061C307.683 12.5214 308.807 11.7374 310.054 11.2023C311.301 10.6671 312.643 10.3919 314 10.3936C315.31 10.3919 316.607 10.6483 317.818 11.1482C319.028 11.6481 320.129 12.3817 321.056 13.3071C321.99 14.2352 322.732 15.3393 323.237 16.5556C323.742 17.772 324.002 19.0764 324 20.3936Z" fill="black" stroke="white" stroke-width="2" stroke-linecap="round" stroke-linejoin="round"/>
<path d="M324 20.3933C322.541 20.3933 318.516 19.8433 314.914 21.4248C311 23.1433 308.167 25.8093 306.932 27.4668" stroke="white" stroke-width="2" stroke-linecap="round" stroke-linejoin="round"/>
<path d="M310.25 11.1206C311.815 12.5651 315.23 16.2426 316.5 19.8936C317.77 23.5446 318.24 28.0336 318.53 29.3111" stroke="white" stroke-width="2" stroke-linecap="round" stroke-linejoin="round"/>
<path d="M304.077 19.1434C305.966 19.2574 310.967 19.3599 314.167 17.9934C317.367 16.6269 320.12 14.1134 321.065 13.3159M304.75 24.1999C305.631 26.3329 307.22 28.097 309.25 29.1954" stroke="white" stroke-width="2" stroke-linecap="round" stroke-linejoin="round"/>
<path d="M304 20.3936C303.997 17.8294 304.981 15.3626 306.75 13.5061C307.683 12.5214 308.807 11.7374 310.054 11.2023C311.301 10.6671 312.643 10.3919 314 10.3936M318 11.2256C319.139 11.7238 320.175 12.4297 321.056 13.3071C321.99 14.2352 322.732 15.3393 323.237 16.5556C323.742 17.772 324.002 19.0764 324 20.3936C324 21.6246 323.778 22.8041 323.37 23.8936M314 30.3936C315.31 30.3953 316.607 30.1388 317.818 29.6389C319.028 29.139 320.129 28.4054 321.056 27.4801" stroke="white" stroke-width="2" stroke-linecap="round" stroke-linejoin="round"/>
</g>
<defs>
<clipPath id="clip0_1142_2563">
<rect width="24" height="24" fill="white" transform="translate(303 9.39355)"/>
</clipPath>
</defs>
</svg>
