<svg width="14" height="14" viewBox="0 0 14 14" fill="none" xmlns="http://www.w3.org/2000/svg">
<g id="Vector">
<path d="M5.64667 0.375C5.64667 0.167893 5.81456 0 6.02167 0H7.97833C8.18544 0 8.35333 0.167893 8.35333 0.375V13.625C8.35333 13.8321 8.18544 14 7.97833 14H6.02167C5.81456 14 5.64667 13.8321 5.64667 13.625V0.375Z" fill="#002BF3"/>
<path d="M10.7015 1.3385C10.8479 1.19205 11.0854 1.19205 11.2318 1.3385L12.6154 2.72207C12.7618 2.86852 12.7618 3.10595 12.6154 3.2524L3.24623 12.6216C3.09979 12.768 2.86235 12.768 2.7159 12.6216L1.33233 11.238C1.18588 11.0915 1.18588 10.8541 1.33233 10.7077L10.7015 1.3385Z" fill="#002BF3"/>
<path d="M0.375 8.35333C0.167893 8.35333 0 8.18544 0 7.97833V6.02167C0 5.81456 0.167893 5.64667 0.375 5.64667H13.625C13.8321 5.64667 14 5.81456 14 6.02167V7.97833C14 8.18544 13.8321 8.35333 13.625 8.35333H0.375Z" fill="#002BF3"/>
<path d="M1.3385 3.25183C1.19205 3.10538 1.19205 2.86795 1.3385 2.7215L2.72207 1.33793C2.86852 1.19148 3.10595 1.19148 3.2524 1.33793L12.6216 10.7071C12.768 10.8535 12.768 11.091 12.6216 11.2374L11.238 12.621C11.0915 12.7674 10.8541 12.7674 10.7077 12.621L1.3385 3.25183Z" fill="#002BF3"/>
</g>
</svg>
